<?xml version="1.0" encoding="utf-8"?>
<!-- Generator: Adobe Illustrator 25.2.1, SVG Export Plug-In . SVG Version: 6.00 Build 0)  -->
<svg version="1.1" id="レイヤー_1" xmlns="http://www.w3.org/2000/svg" xmlns:xlink="http://www.w3.org/1999/xlink" x="0px"
	 y="0px" viewBox="0 0 320 240" style="enable-background:new 0 0 320 240;" xml:space="preserve">
<g>
	<path d="M133.06,115.07h2.04v1.78h0.05c0.55-1.21,1.77-2.02,3.34-2.02c1.66,0,2.89,0.86,3.42,2.34h0.05
		c0.68-1.46,2.11-2.34,3.82-2.34c2.41,0,3.97,1.58,3.97,4.01v8.41h-2.04v-7.95c0-1.68-0.93-2.67-2.53-2.67
		c-1.62,0-2.75,1.21-2.75,2.87v7.75h-2.04v-8.17c0-1.48-0.98-2.45-2.5-2.45c-1.62,0-2.79,1.28-2.79,2.98v7.64h-2.04V115.07z"/>
	<path d="M156.7,112.58h-0.05l-4.48,3.12v-2.12l4.5-3.23h2.06v16.91h-2.04V112.58z"/>
	<path d="M162.72,118.81v-0.02c0-5.37,2.31-8.72,6.2-8.72s6.22,3.35,6.22,8.72v0.02c0,5.37-2.33,8.73-6.22,8.73
		S162.72,124.17,162.72,118.81z M173.03,118.81v-0.02c0-4.24-1.52-6.87-4.1-6.87s-4.08,2.62-4.08,6.87v0.02
		c0,4.24,1.5,6.89,4.08,6.89S173.03,123.05,173.03,118.81z"/>
	<path d="M177.04,123.81v-0.02c0-2.07,1.62-3.38,4.42-3.54l3.49-0.2v-1.02c0-1.49-0.97-2.39-2.67-2.39c-1.57,0-2.55,0.75-2.79,1.84
		l-0.02,0.11h-1.97l0.01-0.13c0.18-2,1.92-3.62,4.79-3.62c2.88,0,4.69,1.56,4.69,4v8.43h-2.04v-1.98h-0.05
		c-0.71,1.34-2.18,2.21-3.81,2.21C178.67,127.49,177.04,126.02,177.04,123.81z M181.56,125.72c1.92,0,3.4-1.32,3.4-3.09v-1
		l-3.26,0.2c-1.63,0.09-2.57,0.82-2.57,1.96v0.02C179.13,124.98,180.09,125.72,181.56,125.72z"/>
</g>
</svg>
